<svg width="300" height="320" viewBox="0 0 300 320" fill="none" xmlns="http://www.w3.org/2000/svg">
<rect width="300" height="300" rx="44" fill="#F6F6F6"/>
<path d="M47 117C57.6667 134.667 92.2 162.4 145 132C211 94 232 102 263 117" stroke="#023D0F" stroke-width="5"/>
<path d="M165.804 36C141.804 135.667 108.204 315.2 165.804 236" stroke="#023D0F" stroke-width="5"/>
<path d="M75.2 150.4C74.6133 147.907 74.32 144.973 74.32 141.6C74.32 138.08 74.6133 135.147 75.2 132.8H92.8C93.3867 135.147 93.68 138.08 93.68 141.6C93.68 144.973 93.3867 147.907 92.8 150.4H75.2ZM110.4 238.4C110.987 240.747 111.28 243.68 111.28 247.2C111.28 250.573 110.987 253.507 110.4 256H57.6C57.0133 253.507 56.72 250.573 56.72 247.2C56.72 243.68 57.0133 240.747 57.6 238.4H75.2C74.6133 235.907 74.32 232.973 74.32 229.6C74.32 226.08 74.6133 223.147 75.2 220.8C74.6133 218.307 74.32 215.373 74.32 212C74.32 208.48 74.6133 205.547 75.2 203.2C74.6133 200.707 74.32 197.773 74.32 194.4C74.32 190.88 74.6133 187.947 75.2 185.6H62C61.4133 183.107 61.12 180.173 61.12 176.8C61.12 173.28 61.4133 170.347 62 168H92.8C93.3867 170.347 93.68 173.28 93.68 176.8C93.68 180.173 93.3867 183.107 92.8 185.6C93.3867 187.947 93.68 190.88 93.68 194.4C93.68 197.773 93.3867 200.707 92.8 203.2C93.3867 205.547 93.68 208.48 93.68 212C93.68 215.373 93.3867 218.307 92.8 220.8C93.3867 223.147 93.68 226.08 93.68 229.6C93.68 232.973 93.3867 235.907 92.8 238.4H110.4Z" fill="#023D0F"/>
<path d="M265.08 217.6C265.08 222.507 264.653 226.773 263.8 230.4H251C251.853 233.813 252.28 238.08 252.28 243.2C252.28 248.107 251.853 252.373 251 256H180.6C179.747 252.373 179.32 248.107 179.32 243.2C179.32 238.08 179.747 233.813 180.6 230.4H238.2C237.347 226.773 236.92 222.507 236.92 217.6C236.92 212.48 237.347 208.213 238.2 204.8H187C186.147 201.173 185.72 196.907 185.72 192C185.72 186.88 186.147 182.613 187 179.2H174.2C173.347 175.573 172.92 171.307 172.92 166.4C172.92 161.28 173.347 157.013 174.2 153.6H187C186.147 149.973 185.72 145.707 185.72 140.8C185.72 135.68 186.147 131.413 187 128H257.4C258.253 131.413 258.68 135.68 258.68 140.8C258.68 145.707 258.253 149.973 257.4 153.6H199.8C200.653 157.013 201.08 161.28 201.08 166.4C201.08 171.307 200.653 175.573 199.8 179.2H251C251.853 182.613 252.28 186.88 252.28 192C252.28 196.907 251.853 201.173 251 204.8H263.8C264.653 208.213 265.08 212.48 265.08 217.6Z" fill="#023D0F"/>
</svg>
