<svg width="244" height="320" viewBox="0 0 244 320" fill="none" xmlns="http://www.w3.org/2000/svg">
<path d="M7 117C17.6667 134.667 52.2 162.4 105 132C171 94 192 102 223 117" stroke="#F6F6F6" stroke-width="5"/>
<path d="M125.804 36C101.804 135.667 68.2039 315.2 125.804 236" stroke="#F6F6F6" stroke-width="5"/>
<path d="M35.2 150.4C34.6133 147.907 34.32 144.973 34.32 141.6C34.32 138.08 34.6133 135.147 35.2 132.8H52.8C53.3867 135.147 53.68 138.08 53.68 141.6C53.68 144.973 53.3867 147.907 52.8 150.4H35.2ZM70.4 238.4C70.9867 240.747 71.28 243.68 71.28 247.2C71.28 250.573 70.9867 253.507 70.4 256H17.6C17.0133 253.507 16.72 250.573 16.72 247.2C16.72 243.68 17.0133 240.747 17.6 238.4H35.2C34.6133 235.907 34.32 232.973 34.32 229.6C34.32 226.08 34.6133 223.147 35.2 220.8C34.6133 218.307 34.32 215.373 34.32 212C34.32 208.48 34.6133 205.547 35.2 203.2C34.6133 200.707 34.32 197.773 34.32 194.4C34.32 190.88 34.6133 187.947 35.2 185.6H22C21.4133 183.107 21.12 180.173 21.12 176.8C21.12 173.28 21.4133 170.347 22 168H52.8C53.3867 170.347 53.68 173.28 53.68 176.8C53.68 180.173 53.3867 183.107 52.8 185.6C53.3867 187.947 53.68 190.88 53.68 194.4C53.68 197.773 53.3867 200.707 52.8 203.2C53.3867 205.547 53.68 208.48 53.68 212C53.68 215.373 53.3867 218.307 52.8 220.8C53.3867 223.147 53.68 226.08 53.68 229.6C53.68 232.973 53.3867 235.907 52.8 238.4H70.4Z" fill="#F6F6F6"/>
<path d="M225.08 217.6C225.08 222.507 224.653 226.773 223.8 230.4H211C211.853 233.813 212.28 238.08 212.28 243.2C212.28 248.107 211.853 252.373 211 256H140.6C139.747 252.373 139.32 248.107 139.32 243.2C139.32 238.08 139.747 233.813 140.6 230.4H198.2C197.347 226.773 196.92 222.507 196.92 217.6C196.92 212.48 197.347 208.213 198.2 204.8H147C146.147 201.173 145.72 196.907 145.72 192C145.72 186.88 146.147 182.613 147 179.2H134.2C133.347 175.573 132.92 171.307 132.92 166.4C132.92 161.28 133.347 157.013 134.2 153.6H147C146.147 149.973 145.72 145.707 145.72 140.8C145.72 135.68 146.147 131.413 147 128H217.4C218.253 131.413 218.68 135.68 218.68 140.8C218.68 145.707 218.253 149.973 217.4 153.6H159.8C160.653 157.013 161.08 161.28 161.08 166.4C161.08 171.307 160.653 175.573 159.8 179.2H211C211.853 182.613 212.28 186.88 212.28 192C212.28 196.907 211.853 201.173 211 204.8H223.8C224.653 208.213 225.08 212.48 225.08 217.6Z" fill="#F6F6F6"/>
</svg>
